<svg width="75" height="72" viewBox="0 0 75 72" fill="none" xmlns="http://www.w3.org/2000/svg">
<path d="M74.9117 22.6148C74.5583 15.5477 72.4382 9.89399 68.5512 6.36042C63.9576 2.12014 57.2438 0 48.0565 0H0V19.788H40.9894C46.6431 19.788 49.47 22.6148 49.47 28.2686V31.0954C49.47 36.7491 46.6431 39.576 40.9894 39.576H14.1343V59.364H43.8163C49.47 59.364 52.2968 62.1908 52.2968 67.8445V71.0247L63.2509 47.7032C62.5442 47.3498 61.4841 46.9965 60.7774 46.9965C62.1908 46.6431 63.2509 45.9364 64.311 45.2297L74.9117 22.6148Z" fill="url(#paint0_linear_17_3408)"/>
<defs>
<linearGradient id="paint0_linear_17_3408" x1="-36.4787" y1="1.56282e-07" x2="-17.4957" y2="83.5152" gradientUnits="userSpaceOnUse">
<stop offset="0.510417" stop-color="#FF3D6C"/>
<stop offset="1" stop-color="#FF3D6C" stop-opacity="0"/>
</linearGradient>
</defs>
</svg>
