<svg width="1170" height="6" viewBox="0 0 1170 6" fill="none" xmlns="http://www.w3.org/2000/svg">
<path d="M11.0792 0L8.28442 6H0L2.79474 0H11.0792ZM16.3692 0L13.5745 6H21.8589L24.6536 0H16.3692ZM29.8439 0L27.0491 6H35.3336L38.1283 0H29.8439ZM43.3186 0L40.5238 6H48.8082L51.603 0H43.3186ZM56.7932 0L53.9985 6H62.2829L65.0776 0H56.7932ZM70.2679 0L67.4731 6H75.7576L78.5523 0H70.2679ZM83.7425 0L80.9478 6H89.2322L92.027 0H83.7425ZM97.2172 0L94.4225 6H102.707L105.502 0H97.2172ZM110.692 0L107.897 6H116.182L118.976 0H110.692ZM124.167 0L121.372 6H129.656L132.451 0H124.167ZM137.641 0L134.846 6H143.131L145.926 0H137.641ZM151.116 0L148.321 6H156.606L159.4 0H151.116ZM164.591 0L161.796 6H170.08L172.875 0H164.591ZM178.065 0L175.27 6H183.555L186.35 0H178.065ZM191.54 0L188.745 6H197.03L199.824 0H191.54ZM205.015 0L202.22 6H210.504L213.299 0H205.015ZM218.489 0L215.694 6H223.979L226.774 0H218.489ZM231.964 0L229.169 6H237.454L240.248 0H231.964ZM245.438 0L242.644 6H250.928L253.723 0H245.438ZM258.913 0L256.118 6H264.403L267.198 0H258.913ZM272.388 0L269.593 6H277.878L280.672 0H272.388ZM285.862 0L283.068 6H291.352L294.147 0H285.862ZM299.337 0L296.542 6H304.827L307.622 0H299.337ZM312.812 0L310.017 6H318.301L321.096 0H312.812ZM326.286 0L323.492 6H331.776L334.571 0H326.286ZM339.761 0L336.966 6H345.251L348.046 0H339.761ZM353.236 0L350.441 6H358.725L361.52 0H353.236ZM366.71 0L363.916 6H372.2L374.995 0H366.71ZM380.185 0L377.39 6H385.675L388.47 0H380.185ZM393.66 0L390.865 6H399.149L401.944 0H393.66ZM407.134 0L404.34 6H412.624L415.419 0H407.134ZM420.609 0L417.814 6H426.099L428.894 0H420.609ZM434.084 0L431.289 6H439.573L442.368 0H434.084ZM447.558 0L444.764 6H453.048L455.843 0H447.558ZM461.033 0L458.238 6H466.523L469.318 0H461.033ZM474.508 0L471.713 6H479.997L482.792 0H474.508ZM487.982 0L485.188 6H493.472L496.267 0H487.982ZM501.457 0L498.662 6H506.947L509.742 0H501.457ZM514.932 0L512.137 6H520.421L523.216 0H514.932ZM528.406 0L525.612 6H533.896L536.691 0H528.406ZM541.881 0L539.086 6H547.371L550.166 0H541.881ZM555.356 0L552.561 6H560.845L563.64 0H555.356ZM568.83 0L566.036 6H574.32L577.115 0H568.83ZM582.305 0L579.51 6H587.795L590.59 0H582.305ZM595.78 0L592.985 6H601.269L604.064 0H595.78ZM609.254 0L606.46 6H614.744L617.539 0H609.254ZM622.729 0L619.934 6H628.219L631.013 0H622.729ZM636.204 0L633.409 6H641.693L644.488 0H636.204ZM649.678 0L646.884 6H655.168L657.963 0H649.678ZM663.153 0L660.358 6H668.643L671.438 0H663.153ZM676.628 0L673.833 6H682.117L684.912 0H676.628ZM690.102 0L687.308 6H695.592L698.387 0H690.102ZM703.577 0L700.782 6H709.067L711.862 0H703.577ZM717.052 0L714.257 6H722.541L725.336 0H717.052ZM730.526 0L727.732 6H736.016L738.811 0H730.526ZM744.001 0L741.206 6H749.491L752.285 0H744.001ZM757.476 0L754.681 6H762.965L765.76 0H757.476ZM770.95 0L768.156 6H776.44L779.235 0H770.95ZM784.425 0L781.63 6H789.915L792.709 0H784.425ZM797.9 0L795.105 6H803.389L806.184 0H797.9ZM811.374 0L808.58 6H816.864L819.659 0H811.374ZM824.849 0L822.054 6H830.339L833.133 0H824.849ZM838.324 0L835.529 6H843.813L846.608 0H838.324ZM851.798 0L849.004 6H857.288L860.083 0H851.798ZM865.273 0L862.478 6H870.763L873.557 0H865.273ZM878.748 0L875.953 6H884.237L887.032 0H878.748ZM892.222 0L889.428 6H897.712L900.507 0H892.222ZM905.697 0L902.902 6H911.187L913.981 0H905.697ZM919.172 0L916.377 6H924.661L927.456 0H919.172ZM932.646 0L929.852 6H938.136L940.931 0H932.646ZM946.121 0L943.326 6H951.611L954.405 0H946.121ZM959.596 0L956.801 6H965.085L967.88 0H959.596ZM973.07 0L970.276 6H978.56L981.355 0H973.07ZM986.545 0L983.75 6H992.035L994.829 0H986.545ZM1000.02 0L997.225 6H1005.51L1008.3 0H1000.02ZM1013.49 0L1010.7 6H1018.98L1021.78 0H1013.49ZM1026.97 0L1024.17 6H1032.46L1035.25 0H1026.97ZM1040.44 0L1037.65 6H1045.93L1048.73 0H1040.44ZM1053.92 0L1051.12 6H1059.41L1062.2 0H1053.92ZM1067.39 0L1064.6 6H1072.88L1075.68 0H1067.39ZM1080.87 0L1078.07 6H1086.36L1089.15 0H1080.87ZM1094.34 0L1091.55 6H1099.83L1102.63 0H1094.34ZM1107.82 0L1105.02 6H1113.31L1116.1 0H1107.82ZM1121.29 0L1118.5 6H1126.78L1129.58 0H1121.29ZM1134.77 0L1131.97 6H1140.26L1143.05 0H1134.77ZM1148.24 0L1145.45 6H1153.73L1156.53 0H1148.24ZM1161.72 0L1158.92 6H1167.21L1170 0H1161.72Z" fill="white" fill-opacity="0.15"/>
</svg>
